<svg width="130" height="200" viewBox="0 0 130 200" fill="none" xmlns="http://www.w3.org/2000/svg">
<rect width="130" height="200" fill="#2934FF"/>
<g filter="url(#filter0_f_2_2)">
<circle cx="105" cy="25" r="15" fill="url(#paint0_linear_2_2)"/>
<circle cx="105" cy="25" r="14.5" stroke="white"/>
</g>
<path d="M101.21 13.9792C102.232 13.6288 102.963 13.3791 103.562 13.219V18.9646L94.2502 22.0687C94.2515 20.4964 94.2601 19.2954 94.312 18.3986C94.3416 17.8868 94.3845 17.4909 94.444 17.1907C94.505 16.8829 94.5754 16.7199 94.6315 16.6402L94.632 16.6394C94.6879 16.5597 94.8197 16.4374 95.0984 16.2756C95.3699 16.1178 95.7416 15.9445 96.2323 15.7451C97.2137 15.3464 98.6053 14.8697 100.488 14.2247L100.492 14.2233L100.493 14.223L101.209 13.9796L101.21 13.9792ZM103.562 21.9937V36.8378C103.265 36.7514 102.976 36.6263 102.574 36.4506L102.574 36.4506C99.3204 35.0293 94.3046 31.7631 94.2504 25.0977L103.562 21.9937ZM107.426 36.4506L107.426 36.4506C107.024 36.6265 106.735 36.752 106.438 36.8387V21.9937L115.75 25.0977C115.695 31.7631 110.68 35.0293 107.426 36.4506ZM108.79 13.978L108.791 13.9781L109.507 14.2231C109.507 14.2231 109.507 14.2231 109.507 14.2231C111.393 14.8683 112.786 15.3452 113.768 15.744C114.258 15.9433 114.63 16.1166 114.902 16.2743C115.18 16.4362 115.312 16.5584 115.368 16.6382L115.369 16.6389C115.425 16.7186 115.495 16.8817 115.556 17.1895C115.615 17.4896 115.658 17.8855 115.688 18.3972C115.74 19.2938 115.748 20.4945 115.75 22.0664L106.438 18.9645V13.2177C107.037 13.3778 107.768 13.6275 108.79 13.978Z" fill="white" stroke="black"/>
<g filter="url(#filter1_f_2_2)">
<circle cx="25" cy="175" r="15" fill="url(#paint1_linear_2_2)"/>
<circle cx="25" cy="175" r="14.5" stroke="white"/>
</g>
<path d="M21.2096 163.979C22.232 163.629 22.9628 163.379 23.5625 163.219V168.965L14.2502 172.069C14.2515 170.496 14.2601 169.295 14.312 168.399C14.3416 167.887 14.3845 167.491 14.444 167.191C14.505 166.883 14.5754 166.72 14.6315 166.64L14.632 166.639C14.6879 166.56 14.8197 166.437 15.0984 166.276C15.3699 166.118 15.7416 165.944 16.2323 165.745C17.2137 165.346 18.6053 164.87 20.4885 164.225L20.4923 164.223L20.4933 164.223L21.2086 163.98L21.2096 163.979ZM23.5625 171.994V186.838C23.2645 186.751 22.9759 186.626 22.5741 186.451L22.5739 186.451C19.3204 185.029 14.3046 181.763 14.2504 175.098L23.5625 171.994ZM27.4261 186.451L27.4259 186.451C27.0237 186.626 26.7351 186.752 26.4375 186.839V171.994L35.7496 175.098C35.6954 181.763 30.6796 185.029 27.4261 186.451ZM28.7904 163.978L28.7907 163.978L29.5069 164.223C29.5069 164.223 29.5069 164.223 29.5069 164.223C31.3925 164.868 32.7856 165.345 33.7678 165.744C34.2585 165.943 34.6301 166.117 34.9017 166.274C35.1803 166.436 35.3121 166.558 35.368 166.638L35.3685 166.639C35.4246 166.719 35.495 166.882 35.556 167.189C35.6155 167.49 35.6584 167.886 35.688 168.397C35.7399 169.294 35.7485 170.495 35.7498 172.066L26.4375 168.965V163.218C27.0372 163.378 27.768 163.628 28.7904 163.978Z" fill="white" stroke="black"/>
<defs>
<filter id="filter0_f_2_2" x="87.2" y="7.2" width="35.6" height="35.6" filterUnits="userSpaceOnUse" color-interpolation-filters="sRGB">
<feFlood flood-opacity="0" result="BackgroundImageFix"/>
<feBlend mode="normal" in="SourceGraphic" in2="BackgroundImageFix" result="shape"/>
<feGaussianBlur stdDeviation="1.4" result="effect1_foregroundBlur_2_2"/>
</filter>
<filter id="filter1_f_2_2" x="7.2" y="157.2" width="35.6" height="35.6" filterUnits="userSpaceOnUse" color-interpolation-filters="sRGB">
<feFlood flood-opacity="0" result="BackgroundImageFix"/>
<feBlend mode="normal" in="SourceGraphic" in2="BackgroundImageFix" result="shape"/>
<feGaussianBlur stdDeviation="1.4" result="effect1_foregroundBlur_2_2"/>
</filter>
<linearGradient id="paint0_linear_2_2" x1="105" y1="10" x2="105" y2="40" gradientUnits="userSpaceOnUse">
<stop offset="0.159" stop-color="white" stop-opacity="0.84"/>
<stop offset="1" stop-opacity="0.48"/>
</linearGradient>
<linearGradient id="paint1_linear_2_2" x1="25" y1="160" x2="25" y2="190" gradientUnits="userSpaceOnUse">
<stop offset="0.159" stop-color="white" stop-opacity="0.84"/>
<stop offset="1" stop-opacity="0.48"/>
</linearGradient>
</defs>
</svg>
