<svg width="130" height="200" viewBox="0 0 130 200" fill="none" xmlns="http://www.w3.org/2000/svg">
<rect width="130" height="200" fill="url(#paint0_linear_6_82)"/>
<g filter="url(#filter0_d_6_82)">
<mask id="path-1-outside-1_6_82" maskUnits="userSpaceOnUse" x="99" y="178" width="21" height="12" fill="black">
<rect fill="white" x="99" y="178" width="21" height="12"/>
<path d="M105.703 189L102.453 184.661H101.29V189H100.145V179.545H101.29V183.645H101.788L105.574 179.545H106.94L103.118 183.7L107.07 189H105.703ZM108.549 179.545H109.694V187.947H113.018V179.545H114.163V187.947H117.487V179.545H118.632V189H108.549V179.545Z"/>
</mask>
<path d="M105.703 189L102.453 184.661H101.29V189H100.145V179.545H101.29V183.645H101.788L105.574 179.545H106.94L103.118 183.7L107.07 189H105.703ZM108.549 179.545H109.694V187.947H113.018V179.545H114.163V187.947H117.487V179.545H118.632V189H108.549V179.545Z" fill="black"/>
<path d="M105.703 189L104.903 189.599L105.203 190H105.703V189ZM102.453 184.661L103.254 184.061L102.954 183.661H102.453V184.661ZM101.29 184.661V183.661H100.29V184.661H101.29ZM101.29 189V190H102.29V189H101.29ZM100.145 189H99.1449V190H100.145V189ZM100.145 179.545V178.545H99.1449V179.545H100.145ZM101.29 179.545H102.29V178.545H101.29V179.545ZM101.29 183.645H100.29V184.645H101.29V183.645ZM101.788 183.645V184.645H102.226L102.523 184.323L101.788 183.645ZM105.574 179.545V178.545H105.136L104.839 178.867L105.574 179.545ZM106.94 179.545L107.676 180.223L109.219 178.545H106.94V179.545ZM103.118 183.7L102.382 183.023L101.821 183.633L102.316 184.298L103.118 183.7ZM107.07 189V190H109.063L107.871 188.402L107.07 189ZM106.504 188.401L103.254 184.061L101.653 185.26L104.903 189.599L106.504 188.401ZM102.453 183.661H101.29V185.661H102.453V183.661ZM100.29 184.661V189H102.29V184.661H100.29ZM101.29 188H100.145V190H101.29V188ZM101.145 189V179.545H99.1449V189H101.145ZM100.145 180.545H101.29V178.545H100.145V180.545ZM100.29 179.545V183.645H102.29V179.545H100.29ZM101.29 184.645H101.788V182.645H101.29V184.645ZM102.523 184.323L106.309 180.224L104.839 178.867L101.054 182.966L102.523 184.323ZM105.574 180.545H106.94V178.545H105.574V180.545ZM106.204 178.868L102.382 183.023L103.854 184.377L107.676 180.223L106.204 178.868ZM102.316 184.298L106.268 189.598L107.871 188.402L103.92 183.103L102.316 184.298ZM107.07 188H105.703V190H107.07V188ZM108.549 179.545V178.545H107.549V179.545H108.549ZM109.694 179.545H110.694V178.545H109.694V179.545ZM109.694 187.947H108.694V188.947H109.694V187.947ZM113.018 187.947V188.947H114.018V187.947H113.018ZM113.018 179.545V178.545H112.018V179.545H113.018ZM114.163 179.545H115.163V178.545H114.163V179.545ZM114.163 187.947H113.163V188.947H114.163V187.947ZM117.487 187.947V188.947H118.487V187.947H117.487ZM117.487 179.545V178.545H116.487V179.545H117.487ZM118.632 179.545H119.632V178.545H118.632V179.545ZM118.632 189V190H119.632V189H118.632ZM108.549 189H107.549V190H108.549V189ZM108.549 180.545H109.694V178.545H108.549V180.545ZM108.694 179.545V187.947H110.694V179.545H108.694ZM109.694 188.947H113.018V186.947H109.694V188.947ZM114.018 187.947V179.545H112.018V187.947H114.018ZM113.018 180.545H114.163V178.545H113.018V180.545ZM113.163 179.545V187.947H115.163V179.545H113.163ZM114.163 188.947H117.487V186.947H114.163V188.947ZM118.487 187.947V179.545H116.487V187.947H118.487ZM117.487 180.545H118.632V178.545H117.487V180.545ZM117.632 179.545V189H119.632V179.545H117.632ZM118.632 188H108.549V190H118.632V188ZM109.549 189V179.545H107.549V189H109.549Z" fill="white" mask="url(#path-1-outside-1_6_82)"/>
</g>
<g filter="url(#filter1_d_6_82)">
<mask id="path-3-outside-2_6_82" maskUnits="userSpaceOnUse" x="10" y="10" width="21" height="12" fill="black">
<rect fill="white" x="10" y="10" width="21" height="12"/>
<path d="M16.7031 21L13.4531 16.6605H12.2898V21H11.1449V11.5455H12.2898V15.6449H12.7884L16.5739 11.5455H17.9403L14.1179 15.7003L18.0696 21H16.7031ZM19.5492 11.5455H20.6941V19.9474H24.0179V11.5455H25.1628V19.9474H28.4867V11.5455H29.6316V21H19.5492V11.5455Z"/>
</mask>
<path d="M16.7031 21L13.4531 16.6605H12.2898V21H11.1449V11.5455H12.2898V15.6449H12.7884L16.5739 11.5455H17.9403L14.1179 15.7003L18.0696 21H16.7031ZM19.5492 11.5455H20.6941V19.9474H24.0179V11.5455H25.1628V19.9474H28.4867V11.5455H29.6316V21H19.5492V11.5455Z" fill="black"/>
<path d="M16.7031 21L15.9027 21.5995L16.2027 22H16.7031V21ZM13.4531 16.6605L14.2535 16.0611L13.9536 15.6605H13.4531V16.6605ZM12.2898 16.6605V15.6605H11.2898V16.6605H12.2898ZM12.2898 21V22H13.2898V21H12.2898ZM11.1449 21H10.1449V22H11.1449V21ZM11.1449 11.5455V10.5455H10.1449V11.5455H11.1449ZM12.2898 11.5455H13.2898V10.5455H12.2898V11.5455ZM12.2898 15.6449H11.2898V16.6449H12.2898V15.6449ZM12.7884 15.6449V16.6449H13.2261L13.523 16.3233L12.7884 15.6449ZM16.5739 11.5455V10.5455H16.1361L15.8392 10.867L16.5739 11.5455ZM17.9403 11.5455L18.6763 12.2225L20.2192 10.5455H17.9403V11.5455ZM14.1179 15.7003L13.382 15.0232L12.8206 15.6334L13.3162 16.298L14.1179 15.7003ZM18.0696 21V22H20.0626L18.8713 20.4022L18.0696 21ZM17.5035 20.4005L14.2535 16.0611L12.6527 17.26L15.9027 21.5995L17.5035 20.4005ZM13.4531 15.6605H12.2898V17.6605H13.4531V15.6605ZM11.2898 16.6605V21H13.2898V16.6605H11.2898ZM12.2898 20H11.1449V22H12.2898V20ZM12.1449 21V11.5455H10.1449V21H12.1449ZM11.1449 12.5455H12.2898V10.5455H11.1449V12.5455ZM11.2898 11.5455V15.6449H13.2898V11.5455H11.2898ZM12.2898 16.6449H12.7884V14.6449H12.2898V16.6449ZM13.523 16.3233L17.3085 12.2239L15.8392 10.867L12.0537 14.9665L13.523 16.3233ZM16.5739 12.5455H17.9403V10.5455H16.5739V12.5455ZM17.2044 10.8684L13.382 15.0232L14.8538 16.3773L18.6763 12.2225L17.2044 10.8684ZM13.3162 16.298L17.2679 21.5978L18.8713 20.4022L14.9196 15.1025L13.3162 16.298ZM18.0696 20H16.7031V22H18.0696V20ZM19.5492 11.5455V10.5455H18.5492V11.5455H19.5492ZM20.6941 11.5455H21.6941V10.5455H20.6941V11.5455ZM20.6941 19.9474H19.6941V20.9474H20.6941V19.9474ZM24.0179 19.9474V20.9474H25.0179V19.9474H24.0179ZM24.0179 11.5455V10.5455H23.0179V11.5455H24.0179ZM25.1628 11.5455H26.1628V10.5455H25.1628V11.5455ZM25.1628 19.9474H24.1628V20.9474H25.1628V19.9474ZM28.4867 19.9474V20.9474H29.4867V19.9474H28.4867ZM28.4867 11.5455V10.5455H27.4867V11.5455H28.4867ZM29.6316 11.5455H30.6316V10.5455H29.6316V11.5455ZM29.6316 21V22H30.6316V21H29.6316ZM19.5492 21H18.5492V22H19.5492V21ZM19.5492 12.5455H20.6941V10.5455H19.5492V12.5455ZM19.6941 11.5455V19.9474H21.6941V11.5455H19.6941ZM20.6941 20.9474H24.0179V18.9474H20.6941V20.9474ZM25.0179 19.9474V11.5455H23.0179V19.9474H25.0179ZM24.0179 12.5455H25.1628V10.5455H24.0179V12.5455ZM24.1628 11.5455V19.9474H26.1628V11.5455H24.1628ZM25.1628 20.9474H28.4867V18.9474H25.1628V20.9474ZM29.4867 19.9474V11.5455H27.4867V19.9474H29.4867ZM28.4867 12.5455H29.6316V10.5455H28.4867V12.5455ZM28.6316 11.5455V21H30.6316V11.5455H28.6316ZM29.6316 20H19.5492V22H29.6316V20ZM20.5492 21V11.5455H18.5492V21H20.5492Z" fill="white" mask="url(#path-3-outside-2_6_82)"/>
</g>
<g filter="url(#filter2_f_6_82)">
<circle cx="25" cy="175" r="15" fill="url(#paint1_linear_6_82)"/>
<circle cx="25" cy="175" r="14.5" stroke="black"/>
</g>
<path d="M31.2743 180.331L30.9688 180.546V180.919V183.844C30.9688 184.637 30.3247 185.281 29.5312 185.281H28.0938V183.844C28.0938 183.051 27.4485 182.406 26.6562 182.406C25.864 182.406 25.2188 183.051 25.2188 183.844V185.281H23.7812V183.844C23.7812 183.051 23.136 182.406 22.3438 182.406C21.5515 182.406 20.9062 183.051 20.9062 183.844V185.281H19.4688C18.6753 185.281 18.0312 184.637 18.0312 183.844V180.919V180.546L17.7257 180.331C15.2602 178.599 13.7188 175.971 13.7188 173.062C13.7188 167.99 18.4519 163.719 24.5 163.719C30.5481 163.719 35.2812 167.99 35.2812 173.062C35.2812 175.975 33.74 178.599 31.2743 180.331ZM17.6463 171.959C16.9724 172.633 16.5938 173.547 16.5938 174.5C16.5938 175.453 16.9724 176.367 17.6463 177.041C18.3203 177.715 19.2344 178.094 20.1875 178.094C21.1406 178.094 22.0547 177.715 22.7287 177.041C23.4026 176.367 23.7812 175.453 23.7812 174.5C23.7812 173.547 23.4026 172.633 22.7287 171.959C22.0547 171.285 21.1406 170.906 20.1875 170.906C19.2344 170.906 18.3203 171.285 17.6463 171.959ZM31.3537 171.959C30.6797 171.285 29.7656 170.906 28.8125 170.906C27.8594 170.906 26.9453 171.285 26.2713 171.959C25.5974 172.633 25.2188 173.547 25.2188 174.5C25.2188 175.453 25.5974 176.367 26.2713 177.041C26.9453 177.715 27.8594 178.094 28.8125 178.094C29.7656 178.094 30.6797 177.715 31.3537 177.041C32.0276 176.367 32.4062 175.453 32.4062 174.5C32.4062 173.547 32.0276 172.633 31.3537 171.959Z" fill="black" stroke="white" stroke-width="1.4375"/>
<g filter="url(#filter3_f_6_82)">
<circle cx="105" cy="25" r="15" fill="url(#paint2_linear_6_82)"/>
<circle cx="105" cy="25" r="14.5" stroke="black"/>
</g>
<path d="M111.274 30.3312L110.969 30.5459V30.9193V33.8438C110.969 34.6372 110.325 35.2812 109.531 35.2812H108.094V33.8438C108.094 33.0515 107.449 32.4062 106.656 32.4062C105.864 32.4062 105.219 33.0515 105.219 33.8438V35.2812H103.781V33.8438C103.781 33.0515 103.136 32.4062 102.344 32.4062C101.551 32.4062 100.906 33.0515 100.906 33.8438V35.2812H99.4688C98.6753 35.2812 98.0312 34.6372 98.0312 33.8438V30.9193V30.5459L97.7257 30.3312C95.2602 28.599 93.7188 25.9709 93.7188 23.0625C93.7188 17.9897 98.4519 13.7188 104.5 13.7188C110.548 13.7188 115.281 17.9897 115.281 23.0625C115.281 25.9752 113.74 28.5989 111.274 30.3312ZM97.6463 21.9588C96.9724 22.6328 96.5938 23.5469 96.5938 24.5C96.5938 25.4531 96.9724 26.3672 97.6463 27.0412C98.3203 27.7151 99.2344 28.0938 100.188 28.0938C101.141 28.0938 102.055 27.7151 102.729 27.0412C103.403 26.3672 103.781 25.4531 103.781 24.5C103.781 23.5469 103.403 22.6328 102.729 21.9588C102.055 21.2849 101.141 20.9062 100.188 20.9062C99.2344 20.9062 98.3203 21.2849 97.6463 21.9588ZM111.354 21.9588C110.68 21.2849 109.766 20.9062 108.812 20.9062C107.859 20.9062 106.945 21.2849 106.271 21.9588C105.597 22.6328 105.219 23.5469 105.219 24.5C105.219 25.4531 105.597 26.3672 106.271 27.0412C106.945 27.7151 107.859 28.0938 108.812 28.0938C109.766 28.0938 110.68 27.7151 111.354 27.0412C112.028 26.3672 112.406 25.4531 112.406 24.5C112.406 23.5469 112.028 22.6328 111.354 21.9588Z" fill="black" stroke="white" stroke-width="1.4375"/>
<defs>
<filter id="filter0_d_6_82" x="95.1449" y="174.545" width="28.4867" height="19.4545" filterUnits="userSpaceOnUse" color-interpolation-filters="sRGB">
<feFlood flood-opacity="0" result="BackgroundImageFix"/>
<feColorMatrix in="SourceAlpha" type="matrix" values="0 0 0 0 0 0 0 0 0 0 0 0 0 0 0 0 0 0 127 0" result="hardAlpha"/>
<feOffset/>
<feGaussianBlur stdDeviation="2"/>
<feComposite in2="hardAlpha" operator="out"/>
<feColorMatrix type="matrix" values="0 0 0 0 0 0 0 0 0 0 0 0 0 0 0 0 0 0 0.93 0"/>
<feBlend mode="normal" in2="BackgroundImageFix" result="effect1_dropShadow_6_82"/>
<feBlend mode="normal" in="SourceGraphic" in2="effect1_dropShadow_6_82" result="shape"/>
</filter>
<filter id="filter1_d_6_82" x="6.1449" y="6.54545" width="28.4867" height="19.4545" filterUnits="userSpaceOnUse" color-interpolation-filters="sRGB">
<feFlood flood-opacity="0" result="BackgroundImageFix"/>
<feColorMatrix in="SourceAlpha" type="matrix" values="0 0 0 0 0 0 0 0 0 0 0 0 0 0 0 0 0 0 127 0" result="hardAlpha"/>
<feOffset/>
<feGaussianBlur stdDeviation="2"/>
<feComposite in2="hardAlpha" operator="out"/>
<feColorMatrix type="matrix" values="0 0 0 0 0 0 0 0 0 0 0 0 0 0 0 0 0 0 0.93 0"/>
<feBlend mode="normal" in2="BackgroundImageFix" result="effect1_dropShadow_6_82"/>
<feBlend mode="normal" in="SourceGraphic" in2="effect1_dropShadow_6_82" result="shape"/>
</filter>
<filter id="filter2_f_6_82" x="7.2" y="157.2" width="35.6" height="35.6" filterUnits="userSpaceOnUse" color-interpolation-filters="sRGB">
<feFlood flood-opacity="0" result="BackgroundImageFix"/>
<feBlend mode="normal" in="SourceGraphic" in2="BackgroundImageFix" result="shape"/>
<feGaussianBlur stdDeviation="1.4" result="effect1_foregroundBlur_6_82"/>
</filter>
<filter id="filter3_f_6_82" x="87.2" y="7.2" width="35.6" height="35.6" filterUnits="userSpaceOnUse" color-interpolation-filters="sRGB">
<feFlood flood-opacity="0" result="BackgroundImageFix"/>
<feBlend mode="normal" in="SourceGraphic" in2="BackgroundImageFix" result="shape"/>
<feGaussianBlur stdDeviation="1.4" result="effect1_foregroundBlur_6_82"/>
</filter>
<linearGradient id="paint0_linear_6_82" x1="109" y1="31" x2="31.5" y2="149" gradientUnits="userSpaceOnUse">
<stop stop-color="#C12D2D"/>
<stop offset="1" stop-color="#8E0808"/>
</linearGradient>
<linearGradient id="paint1_linear_6_82" x1="25" y1="160" x2="25" y2="190" gradientUnits="userSpaceOnUse">
<stop offset="0.159" stop-opacity="0.84"/>
<stop offset="1" stop-color="white" stop-opacity="0.48"/>
</linearGradient>
<linearGradient id="paint2_linear_6_82" x1="105" y1="10" x2="105" y2="40" gradientUnits="userSpaceOnUse">
<stop offset="0.159" stop-opacity="0.84"/>
<stop offset="1" stop-color="white" stop-opacity="0.48"/>
</linearGradient>
</defs>
</svg>
