<svg width="130" height="200" viewBox="0 0 130 200" fill="none" xmlns="http://www.w3.org/2000/svg">
<rect width="130" height="200" fill="url(#paint0_linear_6_39)"/>
<g filter="url(#filter0_f_6_39)">
<circle cx="25" cy="175" r="15" fill="url(#paint1_linear_6_39)"/>
<circle cx="25" cy="175" r="14.5" stroke="black"/>
</g>
<path d="M31.2743 180.331L30.9688 180.546V180.919V183.844C30.9688 184.637 30.3247 185.281 29.5312 185.281H28.0938V183.844C28.0938 183.051 27.4485 182.406 26.6562 182.406C25.864 182.406 25.2188 183.051 25.2188 183.844V185.281H23.7812V183.844C23.7812 183.051 23.136 182.406 22.3438 182.406C21.5515 182.406 20.9062 183.051 20.9062 183.844V185.281H19.4688C18.6753 185.281 18.0312 184.637 18.0312 183.844V180.919V180.546L17.7257 180.331C15.2602 178.599 13.7188 175.971 13.7188 173.062C13.7188 167.99 18.4519 163.719 24.5 163.719C30.5481 163.719 35.2812 167.99 35.2812 173.062C35.2812 175.975 33.74 178.599 31.2743 180.331ZM17.6463 171.959C16.9724 172.633 16.5938 173.547 16.5938 174.5C16.5938 175.453 16.9724 176.367 17.6463 177.041C18.3203 177.715 19.2344 178.094 20.1875 178.094C21.1406 178.094 22.0547 177.715 22.7287 177.041C23.4026 176.367 23.7812 175.453 23.7812 174.5C23.7812 173.547 23.4026 172.633 22.7287 171.959C22.0547 171.285 21.1406 170.906 20.1875 170.906C19.2344 170.906 18.3203 171.285 17.6463 171.959ZM31.3537 171.959C30.6797 171.285 29.7656 170.906 28.8125 170.906C27.8594 170.906 26.9453 171.285 26.2713 171.959C25.5974 172.633 25.2188 173.547 25.2188 174.5C25.2188 175.453 25.5974 176.367 26.2713 177.041C26.9453 177.715 27.8594 178.094 28.8125 178.094C29.7656 178.094 30.6797 177.715 31.3537 177.041C32.0276 176.367 32.4062 175.453 32.4062 174.5C32.4062 173.547 32.0276 172.633 31.3537 171.959Z" fill="black" stroke="white" stroke-width="1.4375"/>
<g filter="url(#filter1_f_6_39)">
<circle cx="105" cy="25" r="15" fill="url(#paint2_linear_6_39)"/>
<circle cx="105" cy="25" r="14.5" stroke="black"/>
</g>
<path d="M111.274 30.3312L110.969 30.5459V30.9193V33.8438C110.969 34.6372 110.325 35.2812 109.531 35.2812H108.094V33.8438C108.094 33.0515 107.449 32.4062 106.656 32.4062C105.864 32.4062 105.219 33.0515 105.219 33.8438V35.2812H103.781V33.8438C103.781 33.0515 103.136 32.4062 102.344 32.4062C101.551 32.4062 100.906 33.0515 100.906 33.8438V35.2812H99.4688C98.6753 35.2812 98.0312 34.6372 98.0312 33.8438V30.9193V30.5459L97.7257 30.3312C95.2602 28.599 93.7188 25.9709 93.7188 23.0625C93.7188 17.9897 98.4519 13.7188 104.5 13.7188C110.548 13.7188 115.281 17.9897 115.281 23.0625C115.281 25.9752 113.74 28.5989 111.274 30.3312ZM97.6463 21.9588C96.9724 22.6328 96.5938 23.5469 96.5938 24.5C96.5938 25.4531 96.9724 26.3672 97.6463 27.0412C98.3203 27.7151 99.2344 28.0938 100.188 28.0938C101.141 28.0938 102.055 27.7151 102.729 27.0412C103.403 26.3672 103.781 25.4531 103.781 24.5C103.781 23.5469 103.403 22.6328 102.729 21.9588C102.055 21.2849 101.141 20.9062 100.188 20.9062C99.2344 20.9062 98.3203 21.2849 97.6463 21.9588ZM111.354 21.9588C110.68 21.2849 109.766 20.9062 108.812 20.9062C107.859 20.9062 106.945 21.2849 106.271 21.9588C105.597 22.6328 105.219 23.5469 105.219 24.5C105.219 25.4531 105.597 26.3672 106.271 27.0412C106.945 27.7151 107.859 28.0938 108.812 28.0938C109.766 28.0938 110.68 27.7151 111.354 27.0412C112.028 26.3672 112.406 25.4531 112.406 24.5C112.406 23.5469 112.028 22.6328 111.354 21.9588Z" fill="black" stroke="white" stroke-width="1.4375"/>
<g filter="url(#filter2_f_6_39)">
<ellipse cx="22" cy="19" rx="12" ry="9" fill="black"/>
</g>
<path d="M29.1131 17.8004H25.5714V17.0576H29.3701C29.7408 17.0576 30.09 16.9269 30.3642 16.6549L29.8453 16.1319L30.3642 16.6549C30.6418 16.3795 30.773 16.0263 30.771 15.6528C30.7691 15.2853 30.6402 14.9359 30.3663 14.6619C30.0905 14.3861 29.7386 14.2587 29.3701 14.2587H24.6563C24.1455 14.2587 23.6821 14.4394 23.3169 14.8046C22.9517 15.1698 22.771 15.6332 22.771 16.1439V18.5432C22.771 18.9894 22.9299 19.3989 23.2515 19.7206C23.5726 20.0417 23.9814 20.2011 24.4275 20.2011H27.9707V20.9439H24.172C23.8017 20.9439 23.4491 21.0732 23.1737 21.3508L23.701 21.8739L23.1737 21.3508C22.9007 21.626 22.7725 21.9762 22.7725 22.3448C22.7725 22.7135 22.9008 23.0645 23.1758 23.3395L23.6701 22.8452L23.1758 23.3395C23.4516 23.6153 23.8035 23.7428 24.172 23.7428H28.8843C29.395 23.7428 29.8582 23.5622 30.224 23.1981L30.2251 23.1969C30.5903 22.8317 30.771 22.3683 30.771 21.8576V19.4583C30.771 19.0121 30.6122 18.6026 30.2905 18.2809C29.9688 17.9592 29.5593 17.8004 29.1131 17.8004ZM13.8019 23.1972L13.8055 23.2008C14.171 23.563 14.6331 23.7428 15.1424 23.7428H19.3705C19.8755 23.7428 20.3257 23.5548 20.6874 23.2073C21.065 22.8444 21.2572 22.3778 21.2572 21.8576V21.0583H21.2572L21.2572 21.0538C21.2548 20.6601 21.0813 20.3314 20.835 20.0833C20.578 19.8245 20.2403 19.6574 19.8444 19.6574L19.8404 19.6574C19.4479 19.6595 19.0924 19.8156 18.8278 20.1124C18.6236 20.3416 18.4878 20.6236 18.4615 20.9439H16.0576V17.0576H18.4624C18.4859 17.3803 18.6105 17.6867 18.8533 17.934C19.125 18.2117 19.4751 18.3441 19.8459 18.3441C20.2007 18.3441 20.5229 18.2195 20.7876 17.9959C21.0961 17.7373 21.2587 17.3792 21.2587 16.9818V16.1439C21.2587 15.6293 21.0589 15.1759 20.6994 14.8164C20.3405 14.4575 19.8877 14.2572 19.3734 14.2572H15.1424C14.6222 14.2572 14.1556 14.4494 13.7927 14.827C13.4452 15.1887 13.2572 15.6389 13.2572 16.1439V21.8576C13.2572 22.3682 13.4378 22.8315 13.8019 23.1972Z" fill="black" stroke="white" stroke-width="1.48561"/>
<g filter="url(#filter3_f_6_39)">
<ellipse cx="108" cy="181" rx="12" ry="9" fill="black"/>
</g>
<path d="M115.113 179.8H111.571V179.058H115.37C115.741 179.058 116.09 178.927 116.364 178.655L115.845 178.132L116.364 178.655C116.642 178.379 116.773 178.026 116.771 177.653C116.769 177.285 116.64 176.936 116.366 176.662C116.09 176.386 115.739 176.259 115.37 176.259H110.656C110.146 176.259 109.682 176.439 109.317 176.805C108.952 177.17 108.771 177.633 108.771 178.144V180.543C108.771 180.989 108.93 181.399 109.252 181.721C109.573 182.042 109.981 182.201 110.427 182.201H113.971V182.944H110.172C109.802 182.944 109.449 183.073 109.174 183.351L109.701 183.874L109.174 183.351C108.901 183.626 108.773 183.976 108.773 184.345C108.773 184.714 108.901 185.065 109.176 185.34L109.67 184.845L109.176 185.34C109.452 185.615 109.804 185.743 110.172 185.743H114.884C115.395 185.743 115.858 185.562 116.224 185.198L116.225 185.197C116.59 184.832 116.771 184.368 116.771 183.858V181.458C116.771 181.012 116.612 180.603 116.291 180.281C115.969 179.959 115.559 179.8 115.113 179.8ZM99.8019 185.197L99.8055 185.201C100.171 185.563 100.633 185.743 101.142 185.743H105.37C105.875 185.743 106.326 185.555 106.687 185.207C107.065 184.844 107.257 184.378 107.257 183.858V183.058H107.257L107.257 183.054C107.255 182.66 107.081 182.331 106.835 182.083C106.578 181.825 106.24 181.657 105.844 181.657L105.84 181.657C105.448 181.659 105.092 181.816 104.828 182.112C104.624 182.342 104.488 182.624 104.461 182.944H102.058V179.058H104.462C104.486 179.38 104.61 179.687 104.853 179.934C105.125 180.212 105.475 180.344 105.846 180.344C106.201 180.344 106.523 180.219 106.788 179.996C107.096 179.737 107.259 179.379 107.259 178.982V178.144C107.259 177.629 107.059 177.176 106.699 176.816C106.34 176.458 105.888 176.257 105.373 176.257H101.142C100.622 176.257 100.156 176.449 99.7927 176.827C99.4452 177.189 99.2572 177.639 99.2572 178.144V183.858C99.2572 184.368 99.4378 184.831 99.8019 185.197Z" fill="black" stroke="white" stroke-width="1.48561"/>
<path d="M96.25 127.91C107.676 119.883 115 107.578 115 93.75C115 69.5898 92.6172 50 65 50C37.3828 50 15 69.5898 15 93.75C15 107.559 22.3242 119.883 33.75 127.91V140.625C33.75 145.801 37.9492 150 43.125 150H52.5V140.625C52.5 138.906 53.9062 137.5 55.625 137.5C57.3437 137.5 58.75 138.906 58.75 140.625V150H71.25V140.625C71.25 138.906 72.6562 137.5 74.375 137.5C76.0937 137.5 77.5 138.906 77.5 140.625V150H86.875C92.0508 150 96.25 145.801 96.25 140.625V127.91ZM33.75 100C33.75 96.6848 35.067 93.5054 37.4112 91.1612C39.7554 88.817 42.9348 87.5 46.25 87.5C49.5652 87.5 52.7446 88.817 55.0888 91.1612C57.433 93.5054 58.75 96.6848 58.75 100C58.75 103.315 57.433 106.495 55.0888 108.839C52.7446 111.183 49.5652 112.5 46.25 112.5C42.9348 112.5 39.7554 111.183 37.4112 108.839C35.067 106.495 33.75 103.315 33.75 100ZM83.75 87.5C87.0652 87.5 90.2446 88.817 92.5888 91.1612C94.933 93.5054 96.25 96.6848 96.25 100C96.25 103.315 94.933 106.495 92.5888 108.839C90.2446 111.183 87.0652 112.5 83.75 112.5C80.4348 112.5 77.2554 111.183 74.9112 108.839C72.567 106.495 71.25 103.315 71.25 100C71.25 96.6848 72.567 93.5054 74.9112 91.1612C77.2554 88.817 80.4348 87.5 83.75 87.5Z" fill="black" fill-opacity="0.35"/>
<defs>
<filter id="filter0_f_6_39" x="7.2" y="157.2" width="35.6" height="35.6" filterUnits="userSpaceOnUse" color-interpolation-filters="sRGB">
<feFlood flood-opacity="0" result="BackgroundImageFix"/>
<feBlend mode="normal" in="SourceGraphic" in2="BackgroundImageFix" result="shape"/>
<feGaussianBlur stdDeviation="1.4" result="effect1_foregroundBlur_6_39"/>
</filter>
<filter id="filter1_f_6_39" x="87.2" y="7.2" width="35.6" height="35.6" filterUnits="userSpaceOnUse" color-interpolation-filters="sRGB">
<feFlood flood-opacity="0" result="BackgroundImageFix"/>
<feBlend mode="normal" in="SourceGraphic" in2="BackgroundImageFix" result="shape"/>
<feGaussianBlur stdDeviation="1.4" result="effect1_foregroundBlur_6_39"/>
</filter>
<filter id="filter2_f_6_39" x="5" y="5" width="34" height="28" filterUnits="userSpaceOnUse" color-interpolation-filters="sRGB">
<feFlood flood-opacity="0" result="BackgroundImageFix"/>
<feBlend mode="normal" in="SourceGraphic" in2="BackgroundImageFix" result="shape"/>
<feGaussianBlur stdDeviation="2.5" result="effect1_foregroundBlur_6_39"/>
</filter>
<filter id="filter3_f_6_39" x="91" y="167" width="34" height="28" filterUnits="userSpaceOnUse" color-interpolation-filters="sRGB">
<feFlood flood-opacity="0" result="BackgroundImageFix"/>
<feBlend mode="normal" in="SourceGraphic" in2="BackgroundImageFix" result="shape"/>
<feGaussianBlur stdDeviation="2.5" result="effect1_foregroundBlur_6_39"/>
</filter>
<linearGradient id="paint0_linear_6_39" x1="109" y1="31" x2="31.5" y2="149" gradientUnits="userSpaceOnUse">
<stop stop-color="#C12D2D"/>
<stop offset="1" stop-color="#8E0808"/>
</linearGradient>
<linearGradient id="paint1_linear_6_39" x1="25" y1="160" x2="25" y2="190" gradientUnits="userSpaceOnUse">
<stop offset="0.159" stop-opacity="0.84"/>
<stop offset="1" stop-color="white" stop-opacity="0.48"/>
</linearGradient>
<linearGradient id="paint2_linear_6_39" x1="105" y1="10" x2="105" y2="40" gradientUnits="userSpaceOnUse">
<stop offset="0.159" stop-opacity="0.84"/>
<stop offset="1" stop-color="white" stop-opacity="0.48"/>
</linearGradient>
</defs>
</svg>
