<svg width="1460" height="700" viewBox="0 0 1460 700" fill="none" xmlns="http://www.w3.org/2000/svg">
<g clip-path="url(#clip0_10_23)">
<rect width="1460" height="700" fill="url(#paint0_linear_10_23)"/>
<g filter="url(#filter0_d_10_23)">
<path d="M194.812 523.938C266.224 473.768 312 396.863 312 310.438C312 159.437 172.107 37 -0.5 37C-173.107 37 -313 159.437 -313 310.438C-313 396.741 -267.224 473.768 -195.812 523.938V603.406C-195.812 635.755 -169.567 662 -137.219 662H-78.625V603.406C-78.625 592.664 -69.8359 583.875 -59.0938 583.875C-48.3516 583.875 -39.5625 592.664 -39.5625 603.406V662H38.5625V603.406C38.5625 592.664 47.3516 583.875 58.0938 583.875C68.8359 583.875 77.625 592.664 77.625 603.406V662H136.219C168.567 662 194.812 635.755 194.812 603.406V523.938ZM-195.812 349.5C-195.812 328.78 -187.581 308.909 -172.93 294.257C-158.279 279.606 -138.408 271.375 -117.688 271.375C-96.9675 271.375 -77.0961 279.606 -62.4448 294.257C-47.7935 308.909 -39.5625 328.78 -39.5625 349.5C-39.5625 370.22 -47.7935 390.091 -62.4448 404.743C-77.0961 419.394 -96.9675 427.625 -117.688 427.625C-138.408 427.625 -158.279 419.394 -172.93 404.743C-187.581 390.091 -195.812 370.22 -195.812 349.5ZM116.688 271.375C137.408 271.375 157.279 279.606 171.93 294.257C186.581 308.909 194.812 328.78 194.812 349.5C194.812 370.22 186.581 390.091 171.93 404.743C157.279 419.394 137.408 427.625 116.688 427.625C95.9675 427.625 76.0961 419.394 61.4448 404.743C46.7935 390.091 38.5625 370.22 38.5625 349.5C38.5625 328.78 46.7935 308.909 61.4448 294.257C76.0961 279.606 95.9675 271.375 116.688 271.375Z" fill="black"/>
<path d="M193.375 521.893L192.312 522.64V523.938V603.406C192.312 634.374 167.187 659.5 136.219 659.5H80.125V603.406C80.125 591.283 70.2166 581.375 58.0938 581.375C45.9709 581.375 36.0625 591.283 36.0625 603.406V659.5H-37.0625V603.406C-37.0625 591.283 -46.9709 581.375 -59.0938 581.375C-71.2166 581.375 -81.125 591.283 -81.125 603.406V659.5H-137.219C-168.187 659.5 -193.312 634.374 -193.312 603.406V523.938V522.64L-194.375 521.893C-265.222 472.119 -310.5 395.81 -310.5 310.438C-310.5 161.12 -172.051 39.5 -0.5 39.5C171.051 39.5 309.5 161.12 309.5 310.438C309.5 395.932 264.222 472.118 193.375 521.893ZM-174.698 292.49C-189.818 307.61 -198.312 328.117 -198.312 349.5C-198.312 370.883 -189.818 391.39 -174.698 406.51C-159.578 421.631 -139.071 430.125 -117.688 430.125C-96.3044 430.125 -75.7971 421.631 -60.677 406.51C-45.5569 391.39 -37.0625 370.883 -37.0625 349.5C-37.0625 328.117 -45.5569 307.61 -60.677 292.49C-75.7971 277.369 -96.3044 268.875 -117.688 268.875C-139.071 268.875 -159.578 277.369 -174.698 292.49ZM173.698 292.49C158.578 277.369 138.071 268.875 116.688 268.875C95.3044 268.875 74.7971 277.369 59.677 292.49C44.5569 307.61 36.0625 328.117 36.0625 349.5C36.0625 370.883 44.5569 391.39 59.677 406.51C74.7971 421.631 95.3044 430.125 116.688 430.125C138.071 430.125 158.578 421.631 173.698 406.51C188.818 391.39 197.312 370.883 197.312 349.5C197.312 328.117 188.818 307.61 173.698 292.49Z" stroke="white" stroke-width="5"/>
</g>
<g filter="url(#filter1_d_10_23)">
<path d="M1654.81 523.938C1726.22 473.768 1772 396.863 1772 310.438C1772 159.437 1632.11 37 1459.5 37C1286.89 37 1147 159.437 1147 310.438C1147 396.741 1192.78 473.768 1264.19 523.938V603.406C1264.19 635.755 1290.43 662 1322.78 662H1381.38V603.406C1381.38 592.664 1390.16 583.875 1400.91 583.875C1411.65 583.875 1420.44 592.664 1420.44 603.406V662H1498.56V603.406C1498.56 592.664 1507.35 583.875 1518.09 583.875C1528.84 583.875 1537.62 592.664 1537.62 603.406V662H1596.22C1628.57 662 1654.81 635.755 1654.81 603.406V523.938ZM1264.19 349.5C1264.19 328.78 1272.42 308.909 1287.07 294.257C1301.72 279.606 1321.59 271.375 1342.31 271.375C1363.03 271.375 1382.9 279.606 1397.56 294.257C1412.21 308.909 1420.44 328.78 1420.44 349.5C1420.44 370.22 1412.21 390.091 1397.56 404.743C1382.9 419.394 1363.03 427.625 1342.31 427.625C1321.59 427.625 1301.72 419.394 1287.07 404.743C1272.42 390.091 1264.19 370.22 1264.19 349.5ZM1576.69 271.375C1597.41 271.375 1617.28 279.606 1631.93 294.257C1646.58 308.909 1654.81 328.78 1654.81 349.5C1654.81 370.22 1646.58 390.091 1631.93 404.743C1617.28 419.394 1597.41 427.625 1576.69 427.625C1555.97 427.625 1536.1 419.394 1521.44 404.743C1506.79 390.091 1498.56 370.22 1498.56 349.5C1498.56 328.78 1506.79 308.909 1521.44 294.257C1536.1 279.606 1555.97 271.375 1576.69 271.375Z" fill="black"/>
<path d="M1653.38 521.893L1652.31 522.64V523.938V603.406C1652.31 634.374 1627.19 659.5 1596.22 659.5H1540.12V603.406C1540.12 591.283 1530.22 581.375 1518.09 581.375C1505.97 581.375 1496.06 591.283 1496.06 603.406V659.5H1422.94V603.406C1422.94 591.283 1413.03 581.375 1400.91 581.375C1388.78 581.375 1378.88 591.283 1378.88 603.406V659.5H1322.78C1291.81 659.5 1266.69 634.374 1266.69 603.406V523.938V522.64L1265.62 521.893C1194.78 472.119 1149.5 395.81 1149.5 310.438C1149.5 161.12 1287.95 39.5 1459.5 39.5C1631.05 39.5 1769.5 161.12 1769.5 310.438C1769.5 395.932 1724.22 472.118 1653.38 521.893ZM1285.3 292.49C1270.18 307.61 1261.69 328.117 1261.69 349.5C1261.69 370.883 1270.18 391.39 1285.3 406.51C1300.42 421.631 1320.93 430.125 1342.31 430.125C1363.7 430.125 1384.2 421.631 1399.32 406.51C1414.44 391.39 1422.94 370.883 1422.94 349.5C1422.94 328.117 1414.44 307.61 1399.32 292.49C1384.2 277.369 1363.7 268.875 1342.31 268.875C1320.93 268.875 1300.42 277.369 1285.3 292.49ZM1633.7 292.49C1618.58 277.369 1598.07 268.875 1576.69 268.875C1555.3 268.875 1534.8 277.369 1519.68 292.49C1504.56 307.61 1496.06 328.117 1496.06 349.5C1496.06 370.883 1504.56 391.39 1519.68 406.51C1534.8 421.631 1555.3 430.125 1576.69 430.125C1598.07 430.125 1618.58 421.631 1633.7 406.51C1648.82 391.39 1657.31 370.883 1657.31 349.5C1657.31 328.117 1648.82 307.61 1633.7 292.49Z" stroke="white" stroke-width="5"/>
</g>
</g>
<defs>
<filter id="filter0_d_10_23" x="-368" y="-18" width="735" height="735" filterUnits="userSpaceOnUse" color-interpolation-filters="sRGB">
<feFlood flood-opacity="0" result="BackgroundImageFix"/>
<feColorMatrix in="SourceAlpha" type="matrix" values="0 0 0 0 0 0 0 0 0 0 0 0 0 0 0 0 0 0 127 0" result="hardAlpha"/>
<feOffset/>
<feGaussianBlur stdDeviation="27.5"/>
<feComposite in2="hardAlpha" operator="out"/>
<feColorMatrix type="matrix" values="0 0 0 0 0 0 0 0 0 0 0 0 0 0 0 0 0 0 1 0"/>
<feBlend mode="normal" in2="BackgroundImageFix" result="effect1_dropShadow_10_23"/>
<feBlend mode="normal" in="SourceGraphic" in2="effect1_dropShadow_10_23" result="shape"/>
</filter>
<filter id="filter1_d_10_23" x="1092" y="-18" width="735" height="735" filterUnits="userSpaceOnUse" color-interpolation-filters="sRGB">
<feFlood flood-opacity="0" result="BackgroundImageFix"/>
<feColorMatrix in="SourceAlpha" type="matrix" values="0 0 0 0 0 0 0 0 0 0 0 0 0 0 0 0 0 0 127 0" result="hardAlpha"/>
<feOffset/>
<feGaussianBlur stdDeviation="27.5"/>
<feComposite in2="hardAlpha" operator="out"/>
<feColorMatrix type="matrix" values="0 0 0 0 0 0 0 0 0 0 0 0 0 0 0 0 0 0 1 0"/>
<feBlend mode="normal" in2="BackgroundImageFix" result="effect1_dropShadow_10_23"/>
<feBlend mode="normal" in="SourceGraphic" in2="effect1_dropShadow_10_23" result="shape"/>
</filter>
<linearGradient id="paint0_linear_10_23" x1="1325" y1="13.5001" x2="108" y2="672" gradientUnits="userSpaceOnUse">
<stop stop-color="#BE2A2A"/>
<stop offset="1" stop-color="#8D0808"/>
</linearGradient>
<clipPath id="clip0_10_23">
<rect width="1460" height="700" fill="white"/>
</clipPath>
</defs>
</svg>
