<svg width="130" height="200" viewBox="0 0 130 200" fill="none" xmlns="http://www.w3.org/2000/svg">
<rect width="130" height="200" fill="url(#paint0_linear_2_2)"/>
<g filter="url(#filter0_f_2_2)">
<circle cx="105" cy="25" r="15" fill="url(#paint1_linear_2_2)"/>
<circle cx="105" cy="25" r="14.5" stroke="white"/>
</g>
<path d="M100.331 13.75L100.308 13.7578C96.5649 15.0401 94.6928 15.6814 94.2225 16.3525C93.7817 16.9791 93.7519 18.759 93.7501 22.2354L94.2502 22.0687M100.331 13.75L100.492 14.2233L100.489 14.2247C98.6053 14.8697 97.2137 15.3464 96.2323 15.7451C95.7416 15.9445 95.3699 16.1178 95.0984 16.2756C94.8197 16.4374 94.6879 16.5597 94.632 16.6394L94.6315 16.6402C94.5754 16.7199 94.505 16.8829 94.444 17.1907C94.3845 17.4909 94.3416 17.8868 94.312 18.3986C94.2601 19.2954 94.2515 20.4964 94.2502 22.0687M100.331 13.75L100.493 14.223L101.209 13.9796L101.21 13.9792C102.232 13.6288 102.963 13.3791 103.562 13.219M100.331 13.75L101.048 13.5063C102.127 13.1363 102.909 12.8684 103.562 12.7024V13.219M94.2502 22.0687C94.2501 22.24 94.25 22.4157 94.25 22.5958L104.062 19.325M94.2502 22.0687L103.562 18.9646M103.562 18.9646V19.325H104.062M103.562 18.9646L103.904 18.8507L104.062 19.325M103.562 18.9646V13.219M104.062 19.325V13.1006C103.904 13.1325 103.739 13.1718 103.562 13.219M103.562 21.9937V36.8378C103.265 36.7514 102.976 36.6263 102.574 36.4506L102.574 36.4506C99.3204 35.0293 94.3046 31.7631 94.2504 25.0977L103.562 21.9937ZM107.426 36.4506L107.426 36.4506C107.024 36.6265 106.735 36.752 106.438 36.8387V21.9937L115.75 25.0977C115.695 31.7631 110.68 35.0293 107.426 36.4506ZM115.75 22.0664L106.438 18.9645V13.2177C107.037 13.3778 107.768 13.6275 108.79 13.978L108.791 13.9781L109.507 14.2231C109.507 14.2231 109.507 14.2231 109.507 14.2231C111.393 14.8683 112.786 15.3452 113.768 15.744C114.258 15.9433 114.63 16.1166 114.902 16.2743C115.18 16.4362 115.312 16.5584 115.368 16.6382L115.369 16.6389C115.425 16.7186 115.495 16.8817 115.556 17.1895C115.615 17.4896 115.658 17.8855 115.688 18.3972C115.74 19.2938 115.748 20.4945 115.75 22.0664Z" fill="white" stroke="black"/>
<g filter="url(#filter1_f_2_2)">
<circle cx="25" cy="178" r="15" fill="url(#paint2_linear_2_2)"/>
<circle cx="25" cy="178" r="14.5" stroke="white"/>
</g>
<path d="M20.3313 166.75L20.3085 166.758C16.5649 168.04 14.6928 168.681 14.2225 169.352C13.7817 169.979 13.7519 171.759 13.7501 175.235L14.2502 175.069M20.3313 166.75L20.4923 167.223L20.4885 167.225C18.6053 167.87 17.2137 168.346 16.2323 168.745C15.7416 168.944 15.3699 169.118 15.0984 169.276C14.8197 169.437 14.6879 169.56 14.632 169.639L14.6315 169.64C14.5754 169.72 14.505 169.883 14.444 170.191C14.3845 170.491 14.3416 170.887 14.312 171.399C14.2601 172.295 14.2515 173.496 14.2502 175.069M20.3313 166.75L20.4933 167.223L21.2086 166.98L21.2096 166.979C22.232 166.629 22.9628 166.379 23.5625 166.219M20.3313 166.75L21.0475 166.506C22.1267 166.136 22.9085 165.868 23.5625 165.702V166.219M14.2502 175.069C14.2501 175.24 14.25 175.416 14.25 175.596L24.0625 172.325M14.2502 175.069L23.5625 171.965M23.5625 171.965V172.325H24.0625M23.5625 171.965L23.9044 171.851L24.0625 172.325M23.5625 171.965V166.219M24.0625 172.325V166.101C23.9045 166.132 23.7392 166.172 23.5625 166.219M23.5625 174.994V189.838C23.2645 189.751 22.9759 189.626 22.5741 189.451L22.5739 189.451C19.3204 188.029 14.3046 184.763 14.2504 178.098L23.5625 174.994ZM27.4261 189.451L27.4259 189.451C27.0237 189.626 26.7351 189.752 26.4375 189.839V174.994L35.7496 178.098C35.6954 184.763 30.6796 188.029 27.4261 189.451ZM35.7498 175.066L26.4375 171.965V166.218C27.0372 166.378 27.768 166.628 28.7904 166.978L28.7907 166.978L29.5069 167.223C29.5069 167.223 29.5069 167.223 29.5069 167.223C31.3925 167.868 32.7856 168.345 33.7678 168.744C34.2585 168.943 34.6301 169.117 34.9017 169.274C35.1803 169.436 35.3121 169.558 35.368 169.638L35.3685 169.639C35.4246 169.719 35.495 169.882 35.556 170.189C35.6155 170.49 35.6584 170.886 35.688 171.397C35.7399 172.294 35.7485 173.495 35.7498 175.066Z" fill="white" stroke="black"/>
<path d="M61.1875 49.5378C58.107 50.1122 54.4877 51.3525 48.9265 53.2588L46.0138 54.25C30.7282 59.4858 23.0879 62.0987 21.1715 64.8335C19.2907 67.5073 19.25 75.3458 19.25 90.9008L61.1875 76.9217V49.5378ZM61.1875 84.9533L19.25 98.9325V99.9543C19.25 128.614 40.7983 142.522 54.3199 148.429C56.9124 149.563 58.5899 150.295 61.1875 150.625V84.9533ZM68.8125 150.63V84.9533L110.75 98.9325V99.9543C110.75 128.614 89.2018 142.522 75.6801 148.429C73.0876 149.563 71.4101 150.3 68.8125 150.63ZM68.8125 76.9217V49.5327C71.893 50.1071 75.5123 51.3474 81.0735 53.2537L83.9863 54.25C99.2718 59.4808 106.912 62.0936 108.828 64.8284C110.709 67.5023 110.75 75.3408 110.75 90.8907L68.8125 76.9217Z" fill="white" fill-opacity="0.35"/>
<g filter="url(#filter2_f_2_2)">
<ellipse cx="111" cy="184" rx="12" ry="9" fill="white"/>
</g>
<path d="M118.113 182.8H114.571V182.058H118.37C118.741 182.058 119.09 181.927 119.364 181.655L118.845 181.132L119.364 181.655C119.642 181.379 119.773 181.026 119.771 180.653C119.769 180.285 119.64 179.936 119.366 179.662C119.09 179.386 118.739 179.259 118.37 179.259H113.656C113.146 179.259 112.682 179.439 112.317 179.805C111.952 180.17 111.771 180.633 111.771 181.144V183.543C111.771 183.989 111.93 184.399 112.252 184.721C112.573 185.042 112.981 185.201 113.427 185.201H116.971V185.944H113.172C112.802 185.944 112.449 186.073 112.174 186.351L112.701 186.874L112.174 186.351C111.901 186.626 111.773 186.976 111.773 187.345C111.773 187.714 111.901 188.065 112.176 188.34L112.67 187.845L112.176 188.34C112.452 188.615 112.804 188.743 113.172 188.743H117.884C118.395 188.743 118.858 188.562 119.224 188.198L119.225 188.197C119.59 187.832 119.771 187.368 119.771 186.858V184.458C119.771 184.012 119.612 183.603 119.291 183.281C118.969 182.959 118.559 182.8 118.113 182.8ZM102.802 188.197L102.805 188.201C103.171 188.563 103.633 188.743 104.142 188.743H108.37C108.875 188.743 109.326 188.555 109.687 188.207C110.065 187.844 110.257 187.378 110.257 186.858V186.058H110.257L110.257 186.054C110.255 185.66 110.081 185.331 109.835 185.083C109.578 184.825 109.24 184.657 108.844 184.657L108.84 184.657C108.448 184.659 108.092 184.816 107.828 185.112C107.624 185.342 107.488 185.624 107.461 185.944H105.058V182.058H107.462C107.486 182.38 107.61 182.687 107.853 182.934C108.125 183.212 108.475 183.344 108.846 183.344C109.201 183.344 109.523 183.219 109.788 182.996C110.096 182.737 110.259 182.379 110.259 181.982V181.144C110.259 180.629 110.059 180.176 109.699 179.816C109.34 179.458 108.888 179.257 108.373 179.257H104.142C103.622 179.257 103.156 179.449 102.793 179.827C102.445 180.189 102.257 180.639 102.257 181.144V186.858C102.257 187.368 102.438 187.831 102.802 188.197Z" fill="white" stroke="black" stroke-width="1.48561"/>
<g filter="url(#filter3_f_2_2)">
<ellipse cx="22" cy="19" rx="12" ry="9" fill="white"/>
</g>
<path d="M29.1131 17.8004H25.5714V17.0576H29.3701C29.7408 17.0576 30.09 16.9269 30.3642 16.6549L29.8453 16.1319L30.3642 16.6549C30.6418 16.3795 30.773 16.0263 30.771 15.6528C30.7691 15.2853 30.6402 14.9359 30.3663 14.6619C30.0905 14.3861 29.7386 14.2587 29.3701 14.2587H24.6563C24.1455 14.2587 23.6821 14.4394 23.3169 14.8046C22.9517 15.1698 22.771 15.6332 22.771 16.1439V18.5432C22.771 18.9894 22.9299 19.3989 23.2515 19.7206C23.5726 20.0417 23.9814 20.2011 24.4275 20.2011H27.9707V20.9439H24.172C23.8017 20.9439 23.4491 21.0732 23.1737 21.3508L23.701 21.8739L23.1737 21.3508C22.9007 21.626 22.7725 21.9762 22.7725 22.3448C22.7725 22.7135 22.9008 23.0645 23.1758 23.3395L23.6701 22.8452L23.1758 23.3395C23.4516 23.6153 23.8035 23.7428 24.172 23.7428H28.8843C29.395 23.7428 29.8582 23.5622 30.224 23.1981L30.2251 23.1969C30.5903 22.8317 30.771 22.3683 30.771 21.8576V19.4583C30.771 19.0121 30.6122 18.6026 30.2905 18.2809C29.9688 17.9592 29.5593 17.8004 29.1131 17.8004ZM13.8019 23.1972L13.8055 23.2008C14.171 23.563 14.6331 23.7428 15.1424 23.7428H19.3705C19.8755 23.7428 20.3257 23.5548 20.6874 23.2073C21.065 22.8444 21.2572 22.3778 21.2572 21.8576V21.0583H21.2572L21.2572 21.0538C21.2548 20.6601 21.0813 20.3314 20.835 20.0833C20.578 19.8245 20.2403 19.6574 19.8444 19.6574L19.8404 19.6574C19.4479 19.6595 19.0924 19.8156 18.8278 20.1124C18.6236 20.3416 18.4878 20.6236 18.4615 20.9439H16.0576V17.0576H18.4624C18.4859 17.3803 18.6105 17.6867 18.8533 17.934C19.125 18.2117 19.4751 18.3441 19.8459 18.3441C20.2007 18.3441 20.5229 18.2195 20.7876 17.9959C21.0961 17.7373 21.2587 17.3792 21.2587 16.9818V16.1439C21.2587 15.6293 21.0589 15.1759 20.6994 14.8164C20.3405 14.4575 19.8877 14.2572 19.3734 14.2572H15.1424C14.6222 14.2572 14.1556 14.4494 13.7927 14.827C13.4452 15.1887 13.2572 15.6389 13.2572 16.1439V21.8576C13.2572 22.3682 13.4378 22.8315 13.8019 23.1972Z" fill="white" stroke="black" stroke-width="1.48561"/>
<defs>
<filter id="filter0_f_2_2" x="87.2" y="7.2" width="35.6" height="35.6" filterUnits="userSpaceOnUse" color-interpolation-filters="sRGB">
<feFlood flood-opacity="0" result="BackgroundImageFix"/>
<feBlend mode="normal" in="SourceGraphic" in2="BackgroundImageFix" result="shape"/>
<feGaussianBlur stdDeviation="1.4" result="effect1_foregroundBlur_2_2"/>
</filter>
<filter id="filter1_f_2_2" x="7.2" y="160.2" width="35.6" height="35.6" filterUnits="userSpaceOnUse" color-interpolation-filters="sRGB">
<feFlood flood-opacity="0" result="BackgroundImageFix"/>
<feBlend mode="normal" in="SourceGraphic" in2="BackgroundImageFix" result="shape"/>
<feGaussianBlur stdDeviation="1.4" result="effect1_foregroundBlur_2_2"/>
</filter>
<filter id="filter2_f_2_2" x="94" y="170" width="34" height="28" filterUnits="userSpaceOnUse" color-interpolation-filters="sRGB">
<feFlood flood-opacity="0" result="BackgroundImageFix"/>
<feBlend mode="normal" in="SourceGraphic" in2="BackgroundImageFix" result="shape"/>
<feGaussianBlur stdDeviation="2.5" result="effect1_foregroundBlur_2_2"/>
</filter>
<filter id="filter3_f_2_2" x="5" y="5" width="34" height="28" filterUnits="userSpaceOnUse" color-interpolation-filters="sRGB">
<feFlood flood-opacity="0" result="BackgroundImageFix"/>
<feBlend mode="normal" in="SourceGraphic" in2="BackgroundImageFix" result="shape"/>
<feGaussianBlur stdDeviation="2.5" result="effect1_foregroundBlur_2_2"/>
</filter>
<linearGradient id="paint0_linear_2_2" x1="109" y1="31" x2="31.5" y2="149" gradientUnits="userSpaceOnUse">
<stop stop-color="#5B63FF"/>
<stop offset="1" stop-color="#373B99"/>
</linearGradient>
<linearGradient id="paint1_linear_2_2" x1="105" y1="10" x2="105" y2="40" gradientUnits="userSpaceOnUse">
<stop offset="0.159" stop-color="white" stop-opacity="0.84"/>
<stop offset="1" stop-opacity="0.48"/>
</linearGradient>
<linearGradient id="paint2_linear_2_2" x1="25" y1="163" x2="25" y2="193" gradientUnits="userSpaceOnUse">
<stop offset="0.159" stop-color="white" stop-opacity="0.84"/>
<stop offset="1" stop-opacity="0.48"/>
</linearGradient>
</defs>
</svg>
