<svg width="1460" height="700" viewBox="0 0 1460 700" fill="none" xmlns="http://www.w3.org/2000/svg">
<g clip-path="url(#clip0_12_34)">
<rect width="1460" height="700" fill="url(#paint0_linear_12_34)"/>
<g filter="url(#filter0_d_12_34)">
<path d="M1654.81 523.938C1726.22 473.768 1772 396.863 1772 310.438C1772 159.437 1632.11 37 1459.5 37C1286.89 37 1147 159.437 1147 310.438C1147 396.741 1192.78 473.768 1264.19 523.938V603.406C1264.19 635.755 1290.43 662 1322.78 662H1381.38V603.406C1381.38 592.664 1390.16 583.875 1400.91 583.875C1411.65 583.875 1420.44 592.664 1420.44 603.406V662H1498.56V603.406C1498.56 592.664 1507.35 583.875 1518.09 583.875C1528.84 583.875 1537.62 592.664 1537.62 603.406V662H1596.22C1628.57 662 1654.81 635.755 1654.81 603.406V523.938ZM1264.19 349.5C1264.19 328.78 1272.42 308.909 1287.07 294.257C1301.72 279.606 1321.59 271.375 1342.31 271.375C1363.03 271.375 1382.9 279.606 1397.56 294.257C1412.21 308.909 1420.44 328.78 1420.44 349.5C1420.44 370.22 1412.21 390.091 1397.56 404.743C1382.9 419.394 1363.03 427.625 1342.31 427.625C1321.59 427.625 1301.72 419.394 1287.07 404.743C1272.42 390.091 1264.19 370.22 1264.19 349.5ZM1576.69 271.375C1597.41 271.375 1617.28 279.606 1631.93 294.257C1646.58 308.909 1654.81 328.78 1654.81 349.5C1654.81 370.22 1646.58 390.091 1631.93 404.743C1617.28 419.394 1597.41 427.625 1576.69 427.625C1555.97 427.625 1536.1 419.394 1521.44 404.743C1506.79 390.091 1498.56 370.22 1498.56 349.5C1498.56 328.78 1506.79 308.909 1521.44 294.257C1536.1 279.606 1555.97 271.375 1576.69 271.375Z" fill="black"/>
<path d="M1653.38 521.893L1652.31 522.64V523.938V603.406C1652.31 634.374 1627.19 659.5 1596.22 659.5H1540.12V603.406C1540.12 591.283 1530.22 581.375 1518.09 581.375C1505.97 581.375 1496.06 591.283 1496.06 603.406V659.5H1422.94V603.406C1422.94 591.283 1413.03 581.375 1400.91 581.375C1388.78 581.375 1378.88 591.283 1378.88 603.406V659.5H1322.78C1291.81 659.5 1266.69 634.374 1266.69 603.406V523.938V522.64L1265.62 521.893C1194.78 472.119 1149.5 395.81 1149.5 310.438C1149.5 161.12 1287.95 39.5 1459.5 39.5C1631.05 39.5 1769.5 161.12 1769.5 310.438C1769.5 395.932 1724.22 472.118 1653.38 521.893ZM1285.3 292.49C1270.18 307.61 1261.69 328.117 1261.69 349.5C1261.69 370.883 1270.18 391.39 1285.3 406.51C1300.42 421.631 1320.93 430.125 1342.31 430.125C1363.7 430.125 1384.2 421.631 1399.32 406.51C1414.44 391.39 1422.94 370.883 1422.94 349.5C1422.94 328.117 1414.44 307.61 1399.32 292.49C1384.2 277.369 1363.7 268.875 1342.31 268.875C1320.93 268.875 1300.42 277.369 1285.3 292.49ZM1633.7 292.49C1618.58 277.369 1598.07 268.875 1576.69 268.875C1555.3 268.875 1534.8 277.369 1519.68 292.49C1504.56 307.61 1496.06 328.117 1496.06 349.5C1496.06 370.883 1504.56 391.39 1519.68 406.51C1534.8 421.631 1555.3 430.125 1576.69 430.125C1598.07 430.125 1618.58 421.631 1633.7 406.51C1648.82 391.39 1657.31 370.883 1657.31 349.5C1657.31 328.117 1648.82 307.61 1633.7 292.49Z" stroke="white" stroke-width="5"/>
</g>
<g filter="url(#filter1_d_12_34)">
<path d="M-23.625 37.2994C-42.714 40.8589 -65.142 48.5449 -99.603 60.3574L-117.652 66.4999C-212.373 98.9449 -259.717 115.136 -271.593 132.083C-283.248 148.652 -283.5 197.225 -283.5 293.615L-23.625 206.99V37.2994ZM-23.625 256.76L-283.5 343.385V349.716C-283.5 527.313 -149.971 613.497 -66.1815 650.1C-50.1165 657.125 -39.7215 661.661 -23.625 663.708V256.76ZM23.625 663.74V256.76L283.5 343.385V349.716C283.5 527.313 149.971 613.497 66.1815 650.1C50.1165 657.125 39.7215 661.692 23.625 663.74ZM23.625 206.99V37.2679C42.714 40.8274 65.142 48.5134 99.603 60.3259L117.652 66.4999C212.373 98.9134 259.717 115.104 271.593 132.051C283.248 148.62 283.5 197.193 283.5 293.552L23.625 206.99Z" fill="white"/>
<path d="M-98.7923 62.7224C-66.0455 51.4974 -44.3672 44.0743 -26.125 40.3364V205.188L-281 290.146C-280.996 243.653 -280.899 208.603 -279.421 183.061C-278.664 169.976 -277.548 159.469 -275.918 151.243C-274.28 142.979 -272.164 137.24 -269.548 133.521L-269.546 133.518C-266.886 129.723 -262.07 125.753 -254.594 121.41C-247.154 117.088 -237.286 112.513 -224.749 107.419C-199.755 97.2653 -164.476 85.1812 -117.328 69.0313L-116.847 68.8666L-116.842 68.865L-98.7976 62.7242L-98.7923 62.7224ZM-65.1799 647.81L-65.1807 647.809C-148.702 611.324 -281 525.77 -281 349.716V345.187L-26.125 260.228V660.836C-40.2646 658.685 -50.0878 654.409 -65.1799 647.81ZM65.1807 647.809L65.1799 647.81L65.0889 647.85C50.044 654.428 40.234 658.718 26.125 660.867V260.228L281 345.187V349.716C281 525.77 148.702 611.324 65.1807 647.809ZM281 290.084L26.125 205.188V40.3049C44.3672 44.0428 66.0455 51.4659 98.7924 62.6909L98.7939 62.6914L116.843 68.8653L116.843 68.8654L116.982 68.9127C164.304 85.1063 199.694 97.217 224.749 107.392C237.286 112.483 247.154 117.058 254.594 121.379C262.07 125.722 266.886 129.691 269.546 133.486L269.548 133.49C272.164 137.209 274.28 142.948 275.918 151.212C277.548 159.437 278.664 169.942 279.421 183.025C280.899 208.564 280.996 243.606 281 290.084Z" stroke="black" stroke-width="5"/>
</g>
</g>
<defs>
<filter id="filter0_d_12_34" x="1092" y="-18" width="735" height="735" filterUnits="userSpaceOnUse" color-interpolation-filters="sRGB">
<feFlood flood-opacity="0" result="BackgroundImageFix"/>
<feColorMatrix in="SourceAlpha" type="matrix" values="0 0 0 0 0 0 0 0 0 0 0 0 0 0 0 0 0 0 127 0" result="hardAlpha"/>
<feOffset/>
<feGaussianBlur stdDeviation="27.5"/>
<feComposite in2="hardAlpha" operator="out"/>
<feColorMatrix type="matrix" values="0 0 0 0 0 0 0 0 0 0 0 0 0 0 0 0 0 0 1 0"/>
<feBlend mode="normal" in2="BackgroundImageFix" result="effect1_dropShadow_12_34"/>
<feBlend mode="normal" in="SourceGraphic" in2="effect1_dropShadow_12_34" result="shape"/>
</filter>
<filter id="filter1_d_12_34" x="-338.5" y="-17.7321" width="677" height="736.472" filterUnits="userSpaceOnUse" color-interpolation-filters="sRGB">
<feFlood flood-opacity="0" result="BackgroundImageFix"/>
<feColorMatrix in="SourceAlpha" type="matrix" values="0 0 0 0 0 0 0 0 0 0 0 0 0 0 0 0 0 0 127 0" result="hardAlpha"/>
<feOffset/>
<feGaussianBlur stdDeviation="27.5"/>
<feComposite in2="hardAlpha" operator="out"/>
<feColorMatrix type="matrix" values="0 0 0 0 1 0 0 0 0 1 0 0 0 0 1 0 0 0 1 0"/>
<feBlend mode="normal" in2="BackgroundImageFix" result="effect1_dropShadow_12_34"/>
<feBlend mode="normal" in="SourceGraphic" in2="effect1_dropShadow_12_34" result="shape"/>
</filter>
<linearGradient id="paint0_linear_12_34" x1="1325" y1="13.5001" x2="108" y2="672" gradientUnits="userSpaceOnUse">
<stop offset="0.343052" stop-color="#8D0808"/>
<stop offset="0.637588" stop-color="#525AE8"/>
</linearGradient>
<clipPath id="clip0_12_34">
<rect width="1460" height="700" fill="white"/>
</clipPath>
</defs>
</svg>
