<svg width="1460" height="700" viewBox="0 0 1460 700" fill="none" xmlns="http://www.w3.org/2000/svg">
<g clip-path="url(#clip0_22_5)">
<rect width="1460" height="700" fill="url(#paint0_linear_22_5)"/>
<g filter="url(#filter0_d_22_5)">
<path d="M-23.625 37.2995C-42.714 40.859 -65.142 48.545 -99.603 60.3575L-117.652 66.5C-212.373 98.945 -259.717 115.136 -271.593 132.083C-283.248 148.652 -283.5 197.225 -283.5 293.615L-23.625 206.99V37.2995ZM-23.625 256.76L-283.5 343.385V349.716C-283.5 527.314 -149.971 613.497 -66.1815 650.1C-50.1165 657.125 -39.7215 661.661 -23.625 663.708V256.76ZM23.625 663.74V256.76L283.5 343.385V349.716C283.5 527.314 149.971 613.497 66.1815 650.1C50.1165 657.125 39.7215 661.692 23.625 663.74ZM23.625 206.99V37.268C42.714 40.8275 65.142 48.5135 99.603 60.326L117.652 66.5C212.373 98.9135 259.717 115.104 271.593 132.051C283.248 148.62 283.5 197.193 283.5 293.552L23.625 206.99Z" fill="white"/>
<path d="M-98.7924 62.7224C-66.0455 51.4975 -44.3673 44.0743 -26.125 40.3364V205.188L-281 290.146C-280.996 243.653 -280.899 208.603 -279.421 183.061C-278.664 169.976 -277.548 159.469 -275.918 151.244C-274.28 142.979 -272.164 137.24 -269.548 133.521L-269.546 133.518C-266.886 129.723 -262.07 125.753 -254.594 121.41C-247.154 117.088 -237.286 112.513 -224.749 107.419C-199.755 97.2654 -164.476 85.1813 -117.328 69.0316L-116.847 68.8667L-116.842 68.8651L-98.7976 62.7242L-98.7924 62.7224ZM-65.1799 647.81L-65.1807 647.81C-148.702 611.324 -281 525.77 -281 349.716V345.187L-26.125 260.229V660.836C-40.2646 658.685 -50.0878 654.409 -65.1799 647.81ZM65.1807 647.81L65.1799 647.81L65.0887 647.85C50.0439 654.428 40.234 658.718 26.125 660.867V260.229L281 345.187V349.716C281 525.77 148.702 611.324 65.1807 647.81ZM281 290.084L26.125 205.188V40.3049C44.3672 44.0428 66.0455 51.466 98.7924 62.6909L98.7939 62.6914L116.843 68.8653L116.843 68.8654L116.982 68.9128C164.304 85.1064 199.694 97.217 224.749 107.392C237.286 112.484 247.154 117.058 254.594 121.38C262.07 125.722 266.886 129.691 269.546 133.486L269.548 133.49C272.164 137.209 274.28 142.948 275.918 151.212C277.548 159.437 278.664 169.942 279.421 183.025C280.899 208.564 280.996 243.606 281 290.084Z" stroke="black" stroke-width="5"/>
</g>
<g filter="url(#filter1_d_22_5)">
<path d="M1436.38 37.2995C1417.29 40.859 1394.86 48.545 1360.4 60.3575L1342.35 66.5C1247.63 98.945 1200.28 115.136 1188.41 132.083C1176.75 148.652 1176.5 197.225 1176.5 293.615L1436.38 206.99V37.2995ZM1436.38 256.76L1176.5 343.385V349.716C1176.5 527.313 1310.03 613.497 1393.82 650.1C1409.88 657.125 1420.28 661.661 1436.38 663.708V256.76ZM1483.62 663.74V256.76L1743.5 343.385V349.716C1743.5 527.313 1609.97 613.497 1526.18 650.1C1510.12 657.125 1499.72 661.692 1483.62 663.74ZM1483.62 206.99V37.268C1502.71 40.8275 1525.14 48.5135 1559.6 60.326L1577.65 66.5C1672.37 98.9135 1719.72 115.104 1731.59 132.051C1743.25 148.62 1743.5 197.193 1743.5 293.552L1483.62 206.99Z" fill="white"/>
<path d="M1361.21 62.7224C1393.95 51.4975 1415.63 44.0743 1433.88 40.3364V205.188L1179 290.146C1179 243.653 1179.1 208.603 1180.58 183.061C1181.34 169.976 1182.45 159.469 1184.08 151.244C1185.72 142.979 1187.84 137.24 1190.45 133.521L1190.45 133.518C1193.11 129.723 1197.93 125.753 1205.41 121.41C1212.85 117.088 1222.71 112.513 1235.25 107.419C1260.25 97.2654 1295.52 85.1812 1342.67 69.0314L1343.15 68.8667L1343.16 68.8651L1361.2 62.7242L1361.21 62.7224ZM1394.82 647.81L1394.82 647.81C1311.3 611.324 1179 525.77 1179 349.716V345.187L1433.88 260.229V660.836C1419.74 658.685 1409.91 654.409 1394.82 647.81ZM1525.18 647.81L1525.18 647.81L1525.09 647.85C1510.04 654.428 1500.23 658.718 1486.12 660.867V260.229L1741 345.187V349.716C1741 525.77 1608.7 611.324 1525.18 647.81ZM1741 290.084L1486.12 205.188V40.3049C1504.37 44.0428 1526.05 51.466 1558.79 62.6909L1558.79 62.6914L1576.84 68.8653L1576.84 68.8654L1576.98 68.9127C1624.3 85.1064 1659.69 97.217 1684.75 107.392C1697.29 112.484 1707.15 117.058 1714.59 121.38C1722.07 125.722 1726.89 129.691 1729.55 133.486L1729.55 133.49C1732.16 137.209 1734.28 142.948 1735.92 151.212C1737.55 159.437 1738.66 169.942 1739.42 183.025C1740.9 208.564 1741 243.606 1741 290.084Z" stroke="black" stroke-width="5"/>
</g>
</g>
<defs>
<filter id="filter0_d_22_5" x="-338.5" y="-17.732" width="677" height="736.472" filterUnits="userSpaceOnUse" color-interpolation-filters="sRGB">
<feFlood flood-opacity="0" result="BackgroundImageFix"/>
<feColorMatrix in="SourceAlpha" type="matrix" values="0 0 0 0 0 0 0 0 0 0 0 0 0 0 0 0 0 0 127 0" result="hardAlpha"/>
<feOffset/>
<feGaussianBlur stdDeviation="27.5"/>
<feComposite in2="hardAlpha" operator="out"/>
<feColorMatrix type="matrix" values="0 0 0 0 1 0 0 0 0 1 0 0 0 0 1 0 0 0 1 0"/>
<feBlend mode="normal" in2="BackgroundImageFix" result="effect1_dropShadow_22_5"/>
<feBlend mode="normal" in="SourceGraphic" in2="effect1_dropShadow_22_5" result="shape"/>
</filter>
<filter id="filter1_d_22_5" x="1121.5" y="-17.732" width="677" height="736.472" filterUnits="userSpaceOnUse" color-interpolation-filters="sRGB">
<feFlood flood-opacity="0" result="BackgroundImageFix"/>
<feColorMatrix in="SourceAlpha" type="matrix" values="0 0 0 0 0 0 0 0 0 0 0 0 0 0 0 0 0 0 127 0" result="hardAlpha"/>
<feOffset/>
<feGaussianBlur stdDeviation="27.5"/>
<feComposite in2="hardAlpha" operator="out"/>
<feColorMatrix type="matrix" values="0 0 0 0 1 0 0 0 0 1 0 0 0 0 1 0 0 0 1 0"/>
<feBlend mode="normal" in2="BackgroundImageFix" result="effect1_dropShadow_22_5"/>
<feBlend mode="normal" in="SourceGraphic" in2="effect1_dropShadow_22_5" result="shape"/>
</filter>
<linearGradient id="paint0_linear_22_5" x1="730" y1="0" x2="730" y2="700" gradientUnits="userSpaceOnUse">
<stop stop-color="#5962FC"/>
<stop offset="1" stop-color="#353A96"/>
</linearGradient>
<clipPath id="clip0_22_5">
<rect width="1460" height="700" fill="white"/>
</clipPath>
</defs>
</svg>
