<svg width="130" height="200" viewBox="0 0 130 200" fill="none" xmlns="http://www.w3.org/2000/svg">
<rect width="130" height="200" fill="url(#paint0_linear_6_70)"/>
<g filter="url(#filter0_f_6_70)">
<circle cx="105" cy="25" r="15" fill="url(#paint1_linear_6_70)"/>
<circle cx="105" cy="25" r="14.5" stroke="white"/>
</g>
<path d="M101.21 13.9792C102.232 13.6288 102.963 13.3791 103.562 13.219V18.9646L94.2502 22.0687C94.2515 20.4964 94.2601 19.2954 94.312 18.3986C94.3416 17.8868 94.3845 17.4909 94.444 17.1907C94.505 16.8829 94.5754 16.7199 94.6315 16.6402L94.632 16.6394C94.6879 16.5597 94.8197 16.4374 95.0984 16.2756C95.3699 16.1178 95.7416 15.9445 96.2323 15.7451C97.2137 15.3464 98.6053 14.8697 100.488 14.2247L100.492 14.2233L100.493 14.223L101.209 13.9796L101.21 13.9792ZM103.562 21.9937V36.8378C103.265 36.7514 102.976 36.6263 102.574 36.4506L102.574 36.4506C99.3204 35.0293 94.3046 31.7631 94.2504 25.0977L103.562 21.9937ZM107.426 36.4506L107.426 36.4506C107.024 36.6265 106.735 36.752 106.438 36.8387V21.9937L115.75 25.0977C115.695 31.7631 110.68 35.0293 107.426 36.4506ZM108.79 13.978L108.791 13.9781L109.507 14.2231C109.507 14.2231 109.507 14.2231 109.507 14.2231C111.393 14.8683 112.786 15.3452 113.768 15.744C114.258 15.9433 114.63 16.1166 114.902 16.2743C115.18 16.4362 115.312 16.5584 115.368 16.6382L115.369 16.6389C115.425 16.7186 115.495 16.8817 115.556 17.1895C115.615 17.4896 115.658 17.8855 115.688 18.3972C115.74 19.2938 115.748 20.4945 115.75 22.0664L106.438 18.9645V13.2177C107.037 13.3778 107.768 13.6275 108.79 13.978Z" fill="white" stroke="black"/>
<g filter="url(#filter1_f_6_70)">
<circle cx="25" cy="175" r="15" fill="url(#paint2_linear_6_70)"/>
<circle cx="25" cy="175" r="14.5" stroke="white"/>
</g>
<path d="M21.2096 163.979C22.232 163.629 22.9628 163.379 23.5625 163.219V168.965L14.2502 172.069C14.2515 170.496 14.2601 169.295 14.312 168.399C14.3416 167.887 14.3845 167.491 14.444 167.191C14.505 166.883 14.5754 166.72 14.6315 166.64L14.632 166.639C14.6879 166.56 14.8197 166.437 15.0984 166.276C15.3699 166.118 15.7416 165.944 16.2323 165.745C17.2137 165.346 18.6053 164.87 20.4885 164.225L20.4923 164.223L20.4933 164.223L21.2086 163.98L21.2096 163.979ZM23.5625 171.994V186.838C23.2645 186.751 22.9759 186.626 22.5741 186.451L22.5739 186.451C19.3204 185.029 14.3046 181.763 14.2504 175.098L23.5625 171.994ZM27.4261 186.451L27.4259 186.451C27.0237 186.626 26.7351 186.752 26.4375 186.839V171.994L35.7496 175.098C35.6954 181.763 30.6796 185.029 27.4261 186.451ZM28.7904 163.978L28.7907 163.978L29.5069 164.223C29.5069 164.223 29.5069 164.223 29.5069 164.223C31.3925 164.868 32.7856 165.345 33.7678 165.744C34.2585 165.943 34.6301 166.117 34.9017 166.274C35.1803 166.436 35.3121 166.558 35.368 166.638L35.3685 166.639C35.4246 166.719 35.495 166.882 35.556 167.189C35.6155 167.49 35.6584 167.886 35.688 168.397C35.7399 169.294 35.7485 170.495 35.7498 172.066L26.4375 168.965V163.218C27.0372 163.378 27.768 163.628 28.7904 163.978Z" fill="white" stroke="black"/>
<g filter="url(#filter2_d_6_70)">
<mask id="path-7-outside-1_6_70" maskUnits="userSpaceOnUse" x="99" y="178" width="21" height="12" fill="black">
<rect fill="white" x="99" y="178" width="21" height="12"/>
<path d="M105.703 189L102.453 184.661H101.29V189H100.145V179.545H101.29V183.645H101.788L105.574 179.545H106.94L103.118 183.7L107.07 189H105.703ZM108.549 179.545H109.694V187.947H113.018V179.545H114.163V187.947H117.487V179.545H118.632V189H108.549V179.545Z"/>
</mask>
<path d="M105.703 189L102.453 184.661H101.29V189H100.145V179.545H101.29V183.645H101.788L105.574 179.545H106.94L103.118 183.7L107.07 189H105.703ZM108.549 179.545H109.694V187.947H113.018V179.545H114.163V187.947H117.487V179.545H118.632V189H108.549V179.545Z" fill="white"/>
<path d="M105.703 189L104.903 189.599L105.203 190H105.703V189ZM102.453 184.661L103.254 184.061L102.954 183.661H102.453V184.661ZM101.29 184.661V183.661H100.29V184.661H101.29ZM101.29 189V190H102.29V189H101.29ZM100.145 189H99.1449V190H100.145V189ZM100.145 179.545V178.545H99.1449V179.545H100.145ZM101.29 179.545H102.29V178.545H101.29V179.545ZM101.29 183.645H100.29V184.645H101.29V183.645ZM101.788 183.645V184.645H102.226L102.523 184.323L101.788 183.645ZM105.574 179.545V178.545H105.136L104.839 178.867L105.574 179.545ZM106.94 179.545L107.676 180.223L109.219 178.545H106.94V179.545ZM103.118 183.7L102.382 183.023L101.821 183.633L102.316 184.298L103.118 183.7ZM107.07 189V190H109.063L107.871 188.402L107.07 189ZM106.504 188.401L103.254 184.061L101.653 185.26L104.903 189.599L106.504 188.401ZM102.453 183.661H101.29V185.661H102.453V183.661ZM100.29 184.661V189H102.29V184.661H100.29ZM101.29 188H100.145V190H101.29V188ZM101.145 189V179.545H99.1449V189H101.145ZM100.145 180.545H101.29V178.545H100.145V180.545ZM100.29 179.545V183.645H102.29V179.545H100.29ZM101.29 184.645H101.788V182.645H101.29V184.645ZM102.523 184.323L106.309 180.224L104.839 178.867L101.054 182.966L102.523 184.323ZM105.574 180.545H106.94V178.545H105.574V180.545ZM106.204 178.868L102.382 183.023L103.854 184.377L107.676 180.223L106.204 178.868ZM102.316 184.298L106.268 189.598L107.871 188.402L103.92 183.103L102.316 184.298ZM107.07 188H105.703V190H107.07V188ZM108.549 179.545V178.545H107.549V179.545H108.549ZM109.694 179.545H110.694V178.545H109.694V179.545ZM109.694 187.947H108.694V188.947H109.694V187.947ZM113.018 187.947V188.947H114.018V187.947H113.018ZM113.018 179.545V178.545H112.018V179.545H113.018ZM114.163 179.545H115.163V178.545H114.163V179.545ZM114.163 187.947H113.163V188.947H114.163V187.947ZM117.487 187.947V188.947H118.487V187.947H117.487ZM117.487 179.545V178.545H116.487V179.545H117.487ZM118.632 179.545H119.632V178.545H118.632V179.545ZM118.632 189V190H119.632V189H118.632ZM108.549 189H107.549V190H108.549V189ZM108.549 180.545H109.694V178.545H108.549V180.545ZM108.694 179.545V187.947H110.694V179.545H108.694ZM109.694 188.947H113.018V186.947H109.694V188.947ZM114.018 187.947V179.545H112.018V187.947H114.018ZM113.018 180.545H114.163V178.545H113.018V180.545ZM113.163 179.545V187.947H115.163V179.545H113.163ZM114.163 188.947H117.487V186.947H114.163V188.947ZM118.487 187.947V179.545H116.487V187.947H118.487ZM117.487 180.545H118.632V178.545H117.487V180.545ZM117.632 179.545V189H119.632V179.545H117.632ZM118.632 188H108.549V190H118.632V188ZM109.549 189V179.545H107.549V189H109.549Z" fill="black" mask="url(#path-7-outside-1_6_70)"/>
</g>
<g filter="url(#filter3_d_6_70)">
<mask id="path-9-outside-2_6_70" maskUnits="userSpaceOnUse" x="10" y="10" width="21" height="12" fill="black">
<rect fill="white" x="10" y="10" width="21" height="12"/>
<path d="M16.7031 21L13.4531 16.6605H12.2898V21H11.1449V11.5455H12.2898V15.6449H12.7884L16.5739 11.5455H17.9403L14.1179 15.7003L18.0696 21H16.7031ZM19.5492 11.5455H20.6941V19.9474H24.0179V11.5455H25.1628V19.9474H28.4867V11.5455H29.6316V21H19.5492V11.5455Z"/>
</mask>
<path d="M16.7031 21L13.4531 16.6605H12.2898V21H11.1449V11.5455H12.2898V15.6449H12.7884L16.5739 11.5455H17.9403L14.1179 15.7003L18.0696 21H16.7031ZM19.5492 11.5455H20.6941V19.9474H24.0179V11.5455H25.1628V19.9474H28.4867V11.5455H29.6316V21H19.5492V11.5455Z" fill="white"/>
<path d="M16.7031 21L15.9027 21.5995L16.2027 22H16.7031V21ZM13.4531 16.6605L14.2535 16.0611L13.9536 15.6605H13.4531V16.6605ZM12.2898 16.6605V15.6605H11.2898V16.6605H12.2898ZM12.2898 21V22H13.2898V21H12.2898ZM11.1449 21H10.1449V22H11.1449V21ZM11.1449 11.5455V10.5455H10.1449V11.5455H11.1449ZM12.2898 11.5455H13.2898V10.5455H12.2898V11.5455ZM12.2898 15.6449H11.2898V16.6449H12.2898V15.6449ZM12.7884 15.6449V16.6449H13.2261L13.523 16.3233L12.7884 15.6449ZM16.5739 11.5455V10.5455H16.1361L15.8392 10.867L16.5739 11.5455ZM17.9403 11.5455L18.6763 12.2225L20.2192 10.5455H17.9403V11.5455ZM14.1179 15.7003L13.382 15.0232L12.8206 15.6334L13.3162 16.298L14.1179 15.7003ZM18.0696 21V22H20.0626L18.8713 20.4022L18.0696 21ZM17.5035 20.4005L14.2535 16.0611L12.6527 17.26L15.9027 21.5995L17.5035 20.4005ZM13.4531 15.6605H12.2898V17.6605H13.4531V15.6605ZM11.2898 16.6605V21H13.2898V16.6605H11.2898ZM12.2898 20H11.1449V22H12.2898V20ZM12.1449 21V11.5455H10.1449V21H12.1449ZM11.1449 12.5455H12.2898V10.5455H11.1449V12.5455ZM11.2898 11.5455V15.6449H13.2898V11.5455H11.2898ZM12.2898 16.6449H12.7884V14.6449H12.2898V16.6449ZM13.523 16.3233L17.3085 12.2239L15.8392 10.867L12.0537 14.9665L13.523 16.3233ZM16.5739 12.5455H17.9403V10.5455H16.5739V12.5455ZM17.2044 10.8684L13.382 15.0232L14.8538 16.3773L18.6763 12.2225L17.2044 10.8684ZM13.3162 16.298L17.2679 21.5978L18.8713 20.4022L14.9196 15.1025L13.3162 16.298ZM18.0696 20H16.7031V22H18.0696V20ZM19.5492 11.5455V10.5455H18.5492V11.5455H19.5492ZM20.6941 11.5455H21.6941V10.5455H20.6941V11.5455ZM20.6941 19.9474H19.6941V20.9474H20.6941V19.9474ZM24.0179 19.9474V20.9474H25.0179V19.9474H24.0179ZM24.0179 11.5455V10.5455H23.0179V11.5455H24.0179ZM25.1628 11.5455H26.1628V10.5455H25.1628V11.5455ZM25.1628 19.9474H24.1628V20.9474H25.1628V19.9474ZM28.4867 19.9474V20.9474H29.4867V19.9474H28.4867ZM28.4867 11.5455V10.5455H27.4867V11.5455H28.4867ZM29.6316 11.5455H30.6316V10.5455H29.6316V11.5455ZM29.6316 21V22H30.6316V21H29.6316ZM19.5492 21H18.5492V22H19.5492V21ZM19.5492 12.5455H20.6941V10.5455H19.5492V12.5455ZM19.6941 11.5455V19.9474H21.6941V11.5455H19.6941ZM20.6941 20.9474H24.0179V18.9474H20.6941V20.9474ZM25.0179 19.9474V11.5455H23.0179V19.9474H25.0179ZM24.0179 12.5455H25.1628V10.5455H24.0179V12.5455ZM24.1628 11.5455V19.9474H26.1628V11.5455H24.1628ZM25.1628 20.9474H28.4867V18.9474H25.1628V20.9474ZM29.4867 19.9474V11.5455H27.4867V19.9474H29.4867ZM28.4867 12.5455H29.6316V10.5455H28.4867V12.5455ZM28.6316 11.5455V21H30.6316V11.5455H28.6316ZM29.6316 20H19.5492V22H29.6316V20ZM20.5492 21V11.5455H18.5492V21H20.5492Z" fill="black" mask="url(#path-9-outside-2_6_70)"/>
</g>
<defs>
<filter id="filter0_f_6_70" x="87.2" y="7.2" width="35.6" height="35.6" filterUnits="userSpaceOnUse" color-interpolation-filters="sRGB">
<feFlood flood-opacity="0" result="BackgroundImageFix"/>
<feBlend mode="normal" in="SourceGraphic" in2="BackgroundImageFix" result="shape"/>
<feGaussianBlur stdDeviation="1.4" result="effect1_foregroundBlur_6_70"/>
</filter>
<filter id="filter1_f_6_70" x="7.2" y="157.2" width="35.6" height="35.6" filterUnits="userSpaceOnUse" color-interpolation-filters="sRGB">
<feFlood flood-opacity="0" result="BackgroundImageFix"/>
<feBlend mode="normal" in="SourceGraphic" in2="BackgroundImageFix" result="shape"/>
<feGaussianBlur stdDeviation="1.4" result="effect1_foregroundBlur_6_70"/>
</filter>
<filter id="filter2_d_6_70" x="95.1449" y="174.545" width="28.4867" height="19.4545" filterUnits="userSpaceOnUse" color-interpolation-filters="sRGB">
<feFlood flood-opacity="0" result="BackgroundImageFix"/>
<feColorMatrix in="SourceAlpha" type="matrix" values="0 0 0 0 0 0 0 0 0 0 0 0 0 0 0 0 0 0 127 0" result="hardAlpha"/>
<feOffset/>
<feGaussianBlur stdDeviation="2"/>
<feComposite in2="hardAlpha" operator="out"/>
<feColorMatrix type="matrix" values="0 0 0 0 1 0 0 0 0 1 0 0 0 0 1 0 0 0 0.93 0"/>
<feBlend mode="normal" in2="BackgroundImageFix" result="effect1_dropShadow_6_70"/>
<feBlend mode="normal" in="SourceGraphic" in2="effect1_dropShadow_6_70" result="shape"/>
</filter>
<filter id="filter3_d_6_70" x="6.14488" y="6.54545" width="28.4867" height="19.4545" filterUnits="userSpaceOnUse" color-interpolation-filters="sRGB">
<feFlood flood-opacity="0" result="BackgroundImageFix"/>
<feColorMatrix in="SourceAlpha" type="matrix" values="0 0 0 0 0 0 0 0 0 0 0 0 0 0 0 0 0 0 127 0" result="hardAlpha"/>
<feOffset/>
<feGaussianBlur stdDeviation="2"/>
<feComposite in2="hardAlpha" operator="out"/>
<feColorMatrix type="matrix" values="0 0 0 0 1 0 0 0 0 1 0 0 0 0 1 0 0 0 0.93 0"/>
<feBlend mode="normal" in2="BackgroundImageFix" result="effect1_dropShadow_6_70"/>
<feBlend mode="normal" in="SourceGraphic" in2="effect1_dropShadow_6_70" result="shape"/>
</filter>
<linearGradient id="paint0_linear_6_70" x1="109" y1="31" x2="31.5" y2="149" gradientUnits="userSpaceOnUse">
<stop stop-color="#5B63FF"/>
<stop offset="1" stop-color="#373B99"/>
</linearGradient>
<linearGradient id="paint1_linear_6_70" x1="105" y1="10" x2="105" y2="40" gradientUnits="userSpaceOnUse">
<stop offset="0.159" stop-color="white" stop-opacity="0.84"/>
<stop offset="1" stop-opacity="0.48"/>
</linearGradient>
<linearGradient id="paint2_linear_6_70" x1="25" y1="160" x2="25" y2="190" gradientUnits="userSpaceOnUse">
<stop offset="0.159" stop-color="white" stop-opacity="0.84"/>
<stop offset="1" stop-opacity="0.48"/>
</linearGradient>
</defs>
</svg>
